# xmcd
#
# Track frame offsets:
# 162
# 23415
# 52925
# 72782
# 104567
# 125427
# 153325
# 187560
#
# Disc length: 2789 seconds
#
#
# Revision: 3
# Processed by: cddbd v1.5.2PL0 Copyright (c) Steve Scherf et al.
# Submitted via: FreeRIP 2.945 
#
DISCID=560ae308
DTITLE=Various Artist - Best of 12" gold Volume 4
DYEAR=1900
DGENRE=
TTITLE0=Whispers - It´s a love thing
TTITLE1=Aretha Franklin - Jump to it
TTITLE2=Shalamar - I can make you feel good
TTITLE3=O´Jays - Put our heads together
TTITLE4=Earth, Wind and Fire - I´ve had enough
TTITLE5=Evelyn King - Love come down
TTITLE6=Oliver Cheatham - Get down saturday night
TTITLE7=Manhattans - Crazy
EXTD=
EXTT0=
EXTT1=
EXTT2=
EXTT3=
EXTT4=
EXTT5=
EXTT6=
EXTT7=
PLAYORDER=
